<mxfile host="app.diagrams.net" modified="2023-11-12T14:57:40.251Z" agent="Mozilla/5.0 (Macintosh; Intel Mac OS X 10_15_7) AppleWebKit/537.36 (KHTML, like Gecko) Chrome/119.0.0.0 Safari/537.36" etag="86lF_PBoqCflG0QoTiom" version="22.1.0" type="github">
  <diagram id="C5RBs43oDa-KdzZeNtuy" name="Page-1">
    <mxGraphModel dx="954" dy="642" grid="1" gridSize="10" guides="1" tooltips="1" connect="1" arrows="1" fold="1" page="1" pageScale="1" pageWidth="827" pageHeight="1169" math="0" shadow="0">
      <root>
        <mxCell id="WIyWlLk6GJQsqaUBKTNV-0" />
        <mxCell id="WIyWlLk6GJQsqaUBKTNV-1" parent="WIyWlLk6GJQsqaUBKTNV-0" />
        <mxCell id="mhug3t3GMSTbv5Kzzi-s-25" value="" style="edgeStyle=orthogonalEdgeStyle;rounded=0;orthogonalLoop=1;jettySize=auto;html=1;" edge="1" parent="WIyWlLk6GJQsqaUBKTNV-1" source="mhug3t3GMSTbv5Kzzi-s-13" target="mhug3t3GMSTbv5Kzzi-s-24">
          <mxGeometry relative="1" as="geometry" />
        </mxCell>
        <mxCell id="mhug3t3GMSTbv5Kzzi-s-13" value="Start" style="ellipse;whiteSpace=wrap;html=1;" vertex="1" parent="WIyWlLk6GJQsqaUBKTNV-1">
          <mxGeometry x="342" y="20" width="144" height="80" as="geometry" />
        </mxCell>
        <mxCell id="mhug3t3GMSTbv5Kzzi-s-41" value="" style="edgeStyle=orthogonalEdgeStyle;rounded=0;orthogonalLoop=1;jettySize=auto;html=1;" edge="1" parent="WIyWlLk6GJQsqaUBKTNV-1" source="mhug3t3GMSTbv5Kzzi-s-24" target="mhug3t3GMSTbv5Kzzi-s-49">
          <mxGeometry relative="1" as="geometry">
            <mxPoint x="414" y="310" as="targetPoint" />
          </mxGeometry>
        </mxCell>
        <mxCell id="mhug3t3GMSTbv5Kzzi-s-24" value="Input String" style="shape=parallelogram;perimeter=parallelogramPerimeter;whiteSpace=wrap;html=1;fixedSize=1;" vertex="1" parent="WIyWlLk6GJQsqaUBKTNV-1">
          <mxGeometry x="354" y="170" width="120" height="60" as="geometry" />
        </mxCell>
        <mxCell id="mhug3t3GMSTbv5Kzzi-s-44" value="Do Nothing" style="whiteSpace=wrap;html=1;rounded=1;" vertex="1" parent="WIyWlLk6GJQsqaUBKTNV-1">
          <mxGeometry x="670" y="305" width="120" height="60" as="geometry" />
        </mxCell>
        <mxCell id="mhug3t3GMSTbv5Kzzi-s-51" value="" style="edgeStyle=orthogonalEdgeStyle;rounded=0;orthogonalLoop=1;jettySize=auto;html=1;" edge="1" parent="WIyWlLk6GJQsqaUBKTNV-1" source="mhug3t3GMSTbv5Kzzi-s-49" target="mhug3t3GMSTbv5Kzzi-s-50">
          <mxGeometry relative="1" as="geometry" />
        </mxCell>
        <mxCell id="mhug3t3GMSTbv5Kzzi-s-62" value="True" style="edgeLabel;html=1;align=center;verticalAlign=middle;resizable=0;points=[];" vertex="1" connectable="0" parent="mhug3t3GMSTbv5Kzzi-s-51">
          <mxGeometry x="-0.1935" y="2" relative="1" as="geometry">
            <mxPoint as="offset" />
          </mxGeometry>
        </mxCell>
        <mxCell id="mhug3t3GMSTbv5Kzzi-s-54" style="edgeStyle=orthogonalEdgeStyle;rounded=0;orthogonalLoop=1;jettySize=auto;html=1;entryX=0;entryY=0.5;entryDx=0;entryDy=0;" edge="1" parent="WIyWlLk6GJQsqaUBKTNV-1" source="mhug3t3GMSTbv5Kzzi-s-49" target="mhug3t3GMSTbv5Kzzi-s-44">
          <mxGeometry relative="1" as="geometry" />
        </mxCell>
        <mxCell id="mhug3t3GMSTbv5Kzzi-s-61" value="False" style="edgeLabel;html=1;align=center;verticalAlign=middle;resizable=0;points=[];" vertex="1" connectable="0" parent="mhug3t3GMSTbv5Kzzi-s-54">
          <mxGeometry x="-0.0758" y="1" relative="1" as="geometry">
            <mxPoint y="1" as="offset" />
          </mxGeometry>
        </mxCell>
        <mxCell id="mhug3t3GMSTbv5Kzzi-s-49" value="&lt;b id=&quot;docs-internal-guid-82ce855e-7fff-1881-83fd-09bb0cd80969&quot; style=&quot;font-weight:normal;&quot;&gt;&lt;p style=&quot;line-height:1.38;margin-top:0pt;margin-bottom:0pt;&quot; dir=&quot;ltr&quot;&gt;&lt;span style=&quot;font-size: 10.5pt; font-family: Roboto, sans-serif; color: rgb(0, 0, 0); background-color: rgb(255, 255, 255); font-weight: 400; font-style: normal; font-variant: normal; text-decoration: none; vertical-align: baseline;&quot;&gt;&lt;span id=&quot;docs-internal-guid-2a9e7616-7fff-f1c5-a024-49d540197bf2&quot;&gt;&lt;/span&gt;&lt;span id=&quot;docs-internal-guid-2a9e7616-7fff-f1c5-a024-49d540197bf2&quot;&gt;&lt;/span&gt;&lt;span id=&quot;docs-internal-guid-2a9e7616-7fff-f1c5-a024-49d540197bf2&quot;&gt;&lt;/span&gt;&lt;span id=&quot;docs-internal-guid-2a9e7616-7fff-f1c5-a024-49d540197bf2&quot;&gt;&lt;/span&gt;&lt;span id=&quot;docs-internal-guid-2a9e7616-7fff-f1c5-a024-49d540197bf2&quot;&gt;&lt;/span&gt;&lt;span id=&quot;docs-internal-guid-2a9e7616-7fff-f1c5-a024-49d540197bf2&quot;&gt;&lt;/span&gt;&lt;span id=&quot;docs-internal-guid-9b4d2efa-7fff-223e-7c0e-14dfea5c1116&quot;&gt;&lt;/span&gt;Loop i = 1 to length string&lt;/span&gt;&lt;/p&gt;&lt;/b&gt;" style="rhombus;whiteSpace=wrap;html=1;rounded=1;" vertex="1" parent="WIyWlLk6GJQsqaUBKTNV-1">
          <mxGeometry x="289" y="270" width="249" height="130" as="geometry" />
        </mxCell>
        <mxCell id="mhug3t3GMSTbv5Kzzi-s-53" value="" style="edgeStyle=orthogonalEdgeStyle;rounded=0;orthogonalLoop=1;jettySize=auto;html=1;" edge="1" parent="WIyWlLk6GJQsqaUBKTNV-1" source="mhug3t3GMSTbv5Kzzi-s-50" target="mhug3t3GMSTbv5Kzzi-s-52">
          <mxGeometry relative="1" as="geometry" />
        </mxCell>
        <mxCell id="mhug3t3GMSTbv5Kzzi-s-50" value="&lt;meta charset=&quot;utf-8&quot;&gt;&lt;span style=&quot;color: rgb(0, 0, 0); font-family: Roboto, sans-serif; font-size: 14px; font-style: normal; font-variant-ligatures: normal; font-variant-caps: normal; font-weight: 400; letter-spacing: normal; orphans: 2; text-align: center; text-indent: 0px; text-transform: none; widows: 2; word-spacing: 0px; -webkit-text-stroke-width: 0px; background-color: rgb(255, 255, 255); text-decoration-thickness: initial; text-decoration-style: initial; text-decoration-color: initial; float: none; display: inline !important;&quot;&gt;string[i] in {&quot;a&quot;, &quot;i&quot;, &quot;u&quot;, &quot;e&quot;, &quot;o&quot;}&amp;nbsp;&lt;/span&gt;" style="whiteSpace=wrap;html=1;rounded=1;" vertex="1" parent="WIyWlLk6GJQsqaUBKTNV-1">
          <mxGeometry x="310.75" y="480" width="206.5" height="60" as="geometry" />
        </mxCell>
        <mxCell id="mhug3t3GMSTbv5Kzzi-s-56" value="" style="edgeStyle=orthogonalEdgeStyle;rounded=0;orthogonalLoop=1;jettySize=auto;html=1;" edge="1" parent="WIyWlLk6GJQsqaUBKTNV-1" source="mhug3t3GMSTbv5Kzzi-s-52" target="mhug3t3GMSTbv5Kzzi-s-55">
          <mxGeometry relative="1" as="geometry" />
        </mxCell>
        <mxCell id="mhug3t3GMSTbv5Kzzi-s-64" value="False" style="edgeLabel;html=1;align=center;verticalAlign=middle;resizable=0;points=[];" vertex="1" connectable="0" parent="mhug3t3GMSTbv5Kzzi-s-56">
          <mxGeometry x="-0.0253" y="2" relative="1" as="geometry">
            <mxPoint y="1" as="offset" />
          </mxGeometry>
        </mxCell>
        <mxCell id="mhug3t3GMSTbv5Kzzi-s-58" value="" style="edgeStyle=orthogonalEdgeStyle;rounded=0;orthogonalLoop=1;jettySize=auto;html=1;" edge="1" parent="WIyWlLk6GJQsqaUBKTNV-1" source="mhug3t3GMSTbv5Kzzi-s-52" target="mhug3t3GMSTbv5Kzzi-s-57">
          <mxGeometry relative="1" as="geometry" />
        </mxCell>
        <mxCell id="mhug3t3GMSTbv5Kzzi-s-63" value="True" style="edgeLabel;html=1;align=center;verticalAlign=middle;resizable=0;points=[];" vertex="1" connectable="0" parent="mhug3t3GMSTbv5Kzzi-s-58">
          <mxGeometry x="0.0605" y="1" relative="1" as="geometry">
            <mxPoint as="offset" />
          </mxGeometry>
        </mxCell>
        <mxCell id="mhug3t3GMSTbv5Kzzi-s-52" value="&lt;meta charset=&quot;utf-8&quot;&gt;&lt;span style=&quot;color: rgb(0, 0, 0); font-family: Roboto, sans-serif; font-size: 14px; font-style: normal; font-variant-ligatures: normal; font-variant-caps: normal; font-weight: 400; letter-spacing: normal; orphans: 2; text-align: center; text-indent: 0px; text-transform: none; widows: 2; word-spacing: 0px; -webkit-text-stroke-width: 0px; background-color: rgb(255, 255, 255); text-decoration-thickness: initial; text-decoration-style: initial; text-decoration-color: initial; float: none; display: inline !important;&quot;&gt;&amp;nbsp; &amp;nbsp; jumlah_vokal = jumlah_vokal + 1&lt;/span&gt;" style="rhombus;whiteSpace=wrap;html=1;rounded=1;" vertex="1" parent="WIyWlLk6GJQsqaUBKTNV-1">
          <mxGeometry x="276" y="610" width="276" height="115" as="geometry" />
        </mxCell>
        <mxCell id="mhug3t3GMSTbv5Kzzi-s-55" value="End Loop" style="whiteSpace=wrap;html=1;rounded=1;" vertex="1" parent="WIyWlLk6GJQsqaUBKTNV-1">
          <mxGeometry x="710" y="637.5" width="120" height="60" as="geometry" />
        </mxCell>
        <mxCell id="mhug3t3GMSTbv5Kzzi-s-60" style="edgeStyle=orthogonalEdgeStyle;rounded=0;orthogonalLoop=1;jettySize=auto;html=1;entryX=0.5;entryY=0;entryDx=0;entryDy=0;" edge="1" parent="WIyWlLk6GJQsqaUBKTNV-1" source="mhug3t3GMSTbv5Kzzi-s-57" target="mhug3t3GMSTbv5Kzzi-s-59">
          <mxGeometry relative="1" as="geometry" />
        </mxCell>
        <mxCell id="mhug3t3GMSTbv5Kzzi-s-57" value="Jumlah_Vokal" style="shape=parallelogram;perimeter=parallelogramPerimeter;whiteSpace=wrap;html=1;fixedSize=1;rounded=1;" vertex="1" parent="WIyWlLk6GJQsqaUBKTNV-1">
          <mxGeometry x="354" y="832.5" width="120" height="60" as="geometry" />
        </mxCell>
        <mxCell id="mhug3t3GMSTbv5Kzzi-s-59" value="End" style="ellipse;whiteSpace=wrap;html=1;" vertex="1" parent="WIyWlLk6GJQsqaUBKTNV-1">
          <mxGeometry x="342" y="950" width="144" height="80" as="geometry" />
        </mxCell>
      </root>
    </mxGraphModel>
  </diagram>
</mxfile>
